<svg width="18" height="20" viewBox="0 0 18 20" fill="none" xmlns="http://www.w3.org/2000/svg">
<path fill-rule="evenodd" clip-rule="evenodd" d="M2.52848 17.4689H15.1464V2.52718H6.03644C5.97155 2.52718 5.86675 2.57925 5.81224 2.63816C4.74318 3.79093 3.67055 4.9642 2.62322 6.12543C2.57034 6.18369 2.53043 6.30573 2.5301 6.40988L2.52848 17.4689ZM16.4081 0C17.1038 0 17.6699 0.567923 17.6699 1.2657V18.7346C17.6699 19.4324 17.1038 20 16.4081 20H1.26669C0.570424 20 0.0042579 19.4324 0.0042579 18.7346C0.0042579 18.5976 0.00328455 6.43006 4.00441e-05 5.94968C-0.00288001 5.45173 0.15383 5.04882 0.493205 4.68235L4.29576 0.526915C4.62248 0.167285 5.00047 0 5.48487 0H16.4081ZM5.05199 8.80694C4.49556 8.80694 4.04263 8.35293 4.04263 7.79477C4.04263 7.23661 4.49523 6.78227 5.05167 6.78227H6.76898L6.76931 5.058C6.76931 4.49984 7.22192 4.04582 7.77867 4.04582C8.33543 4.04582 8.78804 4.49984 8.78804 5.058V7.79477C8.78804 8.35293 8.33543 8.80694 7.77867 8.80694H5.05199Z" fill="#2B546A"/>
</svg>
