<svg width="20" height="19" viewBox="0 0 20 19" fill="none" xmlns="http://www.w3.org/2000/svg">
<mask id="mask0" mask-type="alpha" maskUnits="userSpaceOnUse" x="0" y="0" width="20" height="17">
<path d="M17.9442 4.2367C17.9569 4.42263 17.9569 4.6086 17.9569 4.79453C17.9569 10.4656 13.8326 17 6.29444 17C3.97209 17 1.81473 16.2961 0 15.0742C0.329962 15.1141 0.64719 15.1273 0.989848 15.1273C2.90607 15.1273 4.67006 14.45 6.0787 13.2945C4.27666 13.2547 2.7665 12.0195 2.24618 10.3195C2.50001 10.3593 2.7538 10.3859 3.02032 10.3859C3.38833 10.3859 3.75638 10.3328 4.099 10.2399C2.22083 9.84138 0.812152 8.11484 0.812152 6.02968V5.97657C1.35782 6.29533 1.99239 6.49454 2.66493 6.52107C1.56087 5.75075 0.837542 4.43592 0.837542 2.94841C0.837542 2.15155 1.04055 1.42108 1.3959 0.783574C3.41369 3.3867 6.4467 5.08667 9.8477 5.27264C9.78426 4.95389 9.74617 4.62189 9.74617 4.28985C9.74617 1.92576 11.5736 0 13.8452 0C15.0254 0 16.0914 0.517967 16.8401 1.35469C17.7665 1.16876 18.6548 0.810147 19.4416 0.318752C19.137 1.31487 18.4898 2.15159 17.6396 2.6828C18.4645 2.58988 19.264 2.35076 20 2.01876C19.4417 2.86873 18.7437 3.62573 17.9442 4.2367Z" fill="white"/>
</mask>
<g mask="url(#mask0)">
<rect y="2.80005" width="20" height="16" fill="#353535"/>
<path d="M17.9442 4.2367C17.9569 4.42263 17.9569 4.6086 17.9569 4.79453C17.9569 10.4656 13.8326 17 6.29444 17C3.97209 17 1.81473 16.2961 0 15.0742C0.329962 15.1141 0.64719 15.1273 0.989848 15.1273C2.90607 15.1273 4.67006 14.45 6.0787 13.2945C4.27666 13.2547 2.7665 12.0195 2.24618 10.3195C2.50001 10.3593 2.7538 10.3859 3.02032 10.3859C3.38833 10.3859 3.75638 10.3328 4.099 10.2399C2.22083 9.84138 0.812152 8.11484 0.812152 6.02968V5.97657C1.35782 6.29533 1.99239 6.49454 2.66493 6.52107C1.56087 5.75075 0.837542 4.43592 0.837542 2.94841C0.837542 2.15155 1.04055 1.42108 1.3959 0.783574C3.41369 3.3867 6.4467 5.08667 9.8477 5.27264C9.78426 4.95389 9.74617 4.62189 9.74617 4.28985C9.74617 1.92576 11.5736 0 13.8452 0C15.0254 0 16.0914 0.517967 16.8401 1.35469C17.7665 1.16876 18.6548 0.810147 19.4416 0.318752C19.137 1.31487 18.4898 2.15159 17.6396 2.6828C18.4645 2.58988 19.264 2.35076 20 2.01876C19.4417 2.86873 18.7437 3.62573 17.9442 4.2367Z" fill="#2B546A"/>
</g>
</svg>
